<?xml version="1.0" encoding="UTF-8" standalone="no"?> <!-- Created with Vectornator for iOS (http://vectornator.io/) --><!DOCTYPE svg PUBLIC "-//W3C//DTD SVG 1.1//EN" "http://www.w3.org/Graphics/SVG/1.1/DTD/svg11.dtd">
<svg xmlns:xlink="http://www.w3.org/1999/xlink" width="100%" xmlns="http://www.w3.org/2000/svg" style="fill-rule:nonzero;clip-rule:evenodd;stroke-linecap:round;stroke-linejoin:round;" xmlns:vectornator="http://vectornator.io" version="1.1" height="100%" xml:space="preserve" viewBox="0 0 1024 768">
<metadata>
<vectornator:setting key="WDUnits" value="Pixels"/>
<vectornator:setting key="WDIsolateActiveLayer" value="false"/>
<vectornator:setting value="true" key="WDRulersVisible"/>
<vectornator:setting key="WDSnapToPoints" value="false"/>
<vectornator:setting key="WDDynamicGuides" value="false"/>
<vectornator:setting value="false" key="VNPencilOnly"/>
<vectornator:setting key="IsTimeLapseWatermarkDisabled" value="false"/>
<vectornator:setting key="WDSnapToEdges" value="false"/>
<vectornator:setting key="VNDimensionsVisible" value="true"/>
<vectornator:setting value="false" key="WDSnapToGrid"/>
<vectornator:setting key="WDOutlineMode" value="false"/>
<vectornator:setting key="UndoHistoryDisabled" value="false"/>
<vectornator:setting value="false" key="WDDisplayWhiteBackground"/>
<vectornator:setting key="VNSnapToGuides" value="true"/>
<vectornator:setting key="WDCMYKEnabledKey" value="false"/>
<vectornator:setting key="WDGuidesVisible" value="true"/>
</metadata>
<defs/>
<g id="Layer 1" vectornator:layerName="Layer 1">
<path d="M339.562+4.8125C334.586+4.35576+330.175+8.02345+329.719+13C329.262+17.9766+332.93+22.387+337.906+22.8438C363.07+25.158+388.322+26.5162+413.438+29.3438C419.779+30.0577+426.111+30.9465+432.438+31.7812C437.577+32.4595+443.345+33.1072+448.031+35.4688C450.597+36.7618+452.406+39.1167+454.094+41.375C456.875+45.0978+459.131+49.2031+461.031+53.4375C462.069+55.75+463.009+58.096+463.812+60.5C464.021+61.125+464.211+61.7769+464.406+62.4062C464.41+62.4508+464.406+62.4702+464.406+62.5C464.41+62.7004+464.436+62.8933+464.438+63.0938C464.441+63.725+464.412+64.1641+464.438+64.8125C464.511+66.7021+464.787+68.5507+465.5+70.3125C467.475+75.191+472.455+77.8051+477.406+78.6562C485.226+80.0004+492.883+77.4952+500.531+76.2812C502.134+76.0269+503.759+75.9632+505.375+75.8438C521.062+74.684+536.866+75.0677+552.562+75.8438C567.299+76.5723+582.021+77.9137+596.688+79.5C604.01+80.292+611.326+81.0157+618.625+82C625.451+82.9205+632.14+84.6873+638.938+85.7812C644.937+86.7467+650.932+87.0886+657+86.7188C673.781+85.6959+689.89+80.4505+706.5+78.2812C718.024+76.7762+729.791+77.2251+741.281+78.8125C746.904+79.5892+752.468+80.6603+757.969+82.0625C784.365+88.7915+812.241+103.564+824.469+129.156C826.314+133.018+827.673+137.019+828.75+141.156C830.084+146.263+835.33+149.334+840.438+148C845.545+146.666+848.584+141.451+847.25+136.344C845.706+130.45+843.657+124.724+840.906+119.281C824.98+87.7712+790.799+69.7709+757.531+62.4062C751.892+61.1579+746.204+60.2096+740.469+59.5312C732.216+58.5551+723.869+58.1679+715.562+58.5C704.428+58.9451+693.555+61.1496+682.688+63.4688C672.358+65.6731+661.895+68.0065+651.281+68.0625C647.708+68.0813+644.171+67.5997+640.656+67C635.115+66.0544+629.614+64.7969+624.062+63.9062C619.111+63.1119+614.107+62.6509+609.125+62.0938C601.648+61.2576+594.179+60.453+586.688+59.75C571.66+58.3398+556.589+57.3521+541.5+56.9375C531.652+56.6669+521.781+56.6028+511.938+57.0625C507.184+57.2845+502.361+57.4354+497.656+58.1875C493.854+58.7953+490.12+59.7979+486.312+60.375C485.157+60.5502+483.821+60.689+482.5+60.7188C482.199+57.6434+481.134+54.69+480.062+51.8125C477.245+44.2463+473.509+36.9381+468.656+30.4688C466.318+27.3522+463.698+24.2503+460.562+21.9062C452.858+16.146+442.865+14.8226+433.594+13.625C429.428+13.0869+425.264+12.5056+421.094+12C394.006+8.71541+366.726+7.3004+339.562+4.8125Z" opacity="1" fill="#ffffff"/>
<path d="M340.062+5.625C335.091+5.11866+330.631+8.747+330.125+13.7188C329.646+18.4191+328.676+23.0135+327+27.4375C323.412+36.9071+317.1+45.033+310.219+52.3438C307.274+55.4722+304.222+58.5242+301.062+61.4375C298.159+64.1148+295.06+66.4667+291.938+68.875C291.919+68.8833+291.919+68.9011+291.906+68.9062C291.697+68.9879+291.491+69.0755+291.281+69.1562C291.018+69.2575+290.73+69.3639+290.469+69.4688C289.154+69.9954+287.881+70.582+286.719+71.4062C283.106+73.9681+281.193+78.3284+282.125+82.7188C282.393+83.9788+282.848+85.1221+283.531+86.2188C284.214+87.3135+285.075+88.2444+286.094+89.0312C288.772+91.1003+292.078+91.5175+295.344+91.3438C295.797+91.3196+296.307+91.3043+296.781+91.25C297.363+91.413+297.944+91.544+298.531+91.6875C300.077+92.0651+301.619+92.4649+303.156+92.875C306.909+93.8761+310.634+94.9818+314.25+96.4062C320.443+98.8455+326.043+102.531+331.312+106.562C340.995+113.972+349.662+123.548+353+135.531C354.068+139.366+354.52+143.278+354.562+147.25C354.629+152.528+358.972+156.754+364.25+156.688C369.528+156.621+373.754+152.278+373.688+147C373.608+141.367+372.903+135.807+371.375+130.375C366.717+113.813+355.105+100.456+341.438+90.4688C337.447+87.5523+333.246+84.7551+328.875+82.4375C325.09+80.4309+321.093+78.8451+317.031+77.5C315.374+76.9514+313.677+76.5723+312+76.0938C315.346+73.0613+318.632+69.9099+321.75+66.6562C330.62+57.4+338.6+47.1141+343.406+35.125C345.927+28.8378+347.472+22.2621+348.156+15.5312C348.663+10.5595+345.034+6.13134+340.062+5.625Z" opacity="1" fill="#ffffff"/>
<path d="M838.188+132.188C837.032+131.972+835.814+131.982+834.594+132.25C828.834+133.506+823.225+135.194+817.781+137.469C803.139+143.586+790.033+153.383+779.688+165.375C776.466+169.109+773.524+173.081+770.938+177.281C768.811+180.734+766.896+184.348+765.656+188.219C764.068+193.252+766.872+198.63+771.906+200.219C776.94+201.807+782.318+199.002+783.906+193.969C784.746+191.233+786.258+188.714+787.781+186.312C789.969+182.866+792.455+179.586+795.125+176.5C804.141+166.081+815.53+157.503+828.531+152.75C831.775+151.564+835.099+150.681+838.469+149.938C843.35+148.867+846.446+144.038+845.375+139.156C844.572+135.495+841.654+132.833+838.188+132.188Z" fill="#ffffff" opacity="1"/>
<path opacity="1" fill="#ffffff" d="M406.719+105.625C404.439+105.22+401.986+105.695+399.938+107.125C388.086+115.391+377.128+124.795+367.375+135.469C360.599+142.885+354.444+150.871+348.906+159.25C326.613+192.981+315.062+232.827+311.781+272.906C310.214+292.048+310.582+311.226+312.25+330.344C312.714+335.602+317.336+339.495+322.594+339.031C327.852+338.568+331.745+333.946+331.281+328.688C330.257+317.185+329.668+305.645+329.812+294.094C330.366+249.838+340.485+204.418+365.469+167.312C370.106+160.426+375.232+153.836+380.812+147.688C389.626+137.976+399.572+129.475+410.312+121.969C414.41+119.108+415.392+113.473+412.531+109.375C411.101+107.326+408.999+106.03+406.719+105.625Z"/>
<path d="M734.062+125.719C731.751+125.586+729.396+126.337+727.531+128C723.801+131.326+723.486+137.051+726.812+140.781C732.562+147.233+738.182+153.78+743.5+160.594C747.4+165.591+751.221+170.73+754.406+176.219C756.521+179.863+758.425+183.656+760.281+187.438C763.365+193.718+766.182+200.098+768.781+206.594C774.053+219.768+778.324+233.39+781.375+247.25C783.01+254.678+784.387+262.203+785.094+269.781C785.915+278.584+785.829+287.49+785.406+296.312C784.835+308.228+783.603+320.096+781.938+331.906C780.166+344.471+777.905+356.956+775.156+369.344C771.847+384.255+767.815+399.006+762.531+413.344C760.709+418.298+763.233+423.803+768.188+425.625C773.142+427.447+778.647+424.923+780.469+419.969C786.028+404.818+790.277+389.222+793.75+373.469C796.846+359.424+799.352+345.234+801.188+330.969C802.633+319.735+803.713+308.475+804.188+297.156C804.594+287.453+804.586+277.674+803.625+268C802.951+261.219+801.779+254.483+800.406+247.812C797.309+232.763+792.795+218.011+787.25+203.688C784.056+195.436+780.515+187.339+776.594+179.406C774.54+175.252+772.433+171.096+770.094+167.094C766.477+160.905+762.191+155.111+757.781+149.469C752.216+142.348+746.329+135.461+740.312+128.719C738.649+126.854+736.374+125.851+734.062+125.719Z" opacity="1" fill="#ffffff"/>
<path opacity="1" fill="#ffffff" d="M458.625+135.719C457.45+135.707+456.28+135.931+455.125+136.406C451.632+137.848+448.352+139.793+445.188+141.844C441.62+144.155+438.164+146.646+434.781+149.219C428.624+153.901+422.402+158.856+417.312+164.719C415.728+166.544+414.406+168.526+413.062+170.531C411.535+172.812+410.038+175.104+408.594+177.438C404.676+183.767+401.16+190.381+398.5+197.344C395.459+205.305+393.583+213.652+392.5+222.094C391.989+226.074+391.639+230.058+391.375+234.062C391.041+239.121+390.937+244.123+391.906+249.125C393.114+255.36+395.761+261.106+399.219+266.406C401.826+270.402+404.886+274.065+407.531+278.031C408.655+279.715+409.566+281.457+410.5+283.25C412.946+287.928+418.729+289.759+423.406+287.312C428.084+284.866+429.915+279.084+427.469+274.406C426.86+273.246+426.28+272.072+425.625+270.938C423.976+268.083+422.026+265.392+420.062+262.75C416.124+257.45+411.87+252.098+410.562+245.469C409.893+242.074+410.083+238.683+410.281+235.25C410.517+231.16+410.849+227.064+411.375+223C412.218+216.49+413.598+210.042+415.875+203.875C418.22+197.523+421.459+191.537+425+185.781C426.352+183.583+427.757+181.429+429.188+179.281C429.803+178.357+430.374+177.462+431.094+176.625C433.04+174.361+435.291+172.341+437.531+170.375C440.477+167.789+443.526+165.329+446.656+162.969C449.635+160.723+452.667+158.568+455.812+156.562C457.789+155.302+459.824+154.016+462+153.125C466.621+151.223+468.84+145.934+466.938+141.312C465.511+137.847+462.151+135.753+458.625+135.719Z"/>
<path d="M592.562+206.312C587.606+206.948+584.114+211.481+584.75+216.438C586.151+227.462+586.513+238.614+588.719+249.531C589.245+252.136+589.9+254.741+590.875+257.219C591.868+259.743+593.097+262.396+592.781+265.188C592.557+267.173+591.557+269.039+590.656+270.781C589.586+272.851+588.466+274.893+587.469+277C584.868+282.499+583.155+288.242+582.219+294.25C581.421+299.468+585.001+304.328+590.219+305.125C595.437+305.922+600.296+302.343+601.094+297.125C601.721+292.922+602.89+288.947+604.688+285.094C607.503+279.058+610.938+273.714+611.531+266.906C611.86+263.128+611.34+259.361+610.219+255.75C609.565+253.646+608.581+251.69+607.844+249.625C607.391+248.356+607.045+247.032+606.75+245.719C604.417+235.338+604.08+224.648+602.719+214.125C602.083+209.168+597.519+205.677+592.562+206.312Z" fill="#ffffff" opacity="1"/>
<path fill="#ffffff" d="M701.625+142.719C698.135+142.217+694.53+143.791+692.594+147C690.012+151.279+691.377+156.856+695.656+159.438C699.416+161.707+702.972+164.249+706.188+167.25C724.76+184.581+730.004+211.716+728.562+236.125C728.308+240.431+727.818+244.706+727.156+248.969C726.308+254.438+725.173+259.856+723.688+265.188C721.923+271.522+719.703+277.741+717.031+283.75C713.248+292.26+708.492+300.28+702.562+307.469C699.21+311.546+699.798+317.585+703.875+320.938C707.952+324.29+713.96+323.702+717.312+319.625C724.316+311.083+730.007+301.567+734.469+291.469C737.51+284.586+740.003+277.481+741.969+270.219C743.609+264.157+744.873+257.995+745.781+251.781C750.666+218.37+745.091+180+720.031+155.406C715.5+150.959+710.43+147.213+705+143.938C703.93+143.292+702.788+142.886+701.625+142.719Z" opacity="1"/>
<path d="M315.062+275.219C312.758+274.994+310.367+275.663+308.438+277.25C304.917+280.148+301.702+283.318+298.844+286.875C293.806+293.146+289.904+300.233+285.75+307.094C275.215+324.493+266.101+342.674+256.5+360.594C223.91+421.422+193.954+486.986+190.281+556.938C189.735+567.347+189.704+577.797+190.594+588.188C191.821+602.517+194.424+616.701+196.594+630.906C197.394+636.124+202.251+639.706+207.469+638.906C212.686+638.106+216.269+633.218+215.469+628C213.347+614.215+210.801+600.469+209.594+586.562C208.767+577.046+208.792+567.441+209.281+557.906C210.735+529.59+216.878+501.684+225.656+474.781C237.628+438.091+254.441+403.187+272.562+369.188C281.972+351.532+290.892+333.598+301.25+316.469C305.182+309.966+308.802+303.116+313.719+297.281C315.596+295.054+317.689+293.066+319.938+291.219C323.797+288.045+324.33+282.329+321.156+278.469C319.569+276.539+317.367+275.443+315.062+275.219Z" fill="#ffffff" opacity="1"/>
<path fill="#ffffff" d="M795.781+317.688C793.485+317.39+791.073+317.975+789.094+319.5C785.135+322.55+784.387+328.229+787.438+332.188C789.592+334.978+791.238+338.172+792.812+341.312C794.777+345.232+796.566+349.216+798.281+353.25C803.537+365.61+808.178+378.274+812.375+391.031C814.981+398.954+817.482+406.924+819.688+414.969C820.968+419.638+822.231+424.345+823.031+429.125C824.042+435.161+824.305+441.368+824.625+447.469C825.088+456.292+825.292+465.134+825.281+473.969C825.273+480.4+825.173+486.828+824.812+493.25C824.528+498.316+824.096+503.374+823.219+508.375C822.077+514.883+820.349+521.297+818.469+527.625C814.341+541.515+809.194+555.093+805.438+569.094C803.846+575.026+802.51+581.024+801.094+587C797.784+600.969+794.57+615.036+790.406+628.781C788.17+636.164+784.918+643.156+782.062+650.312C778.188+660.024+774.512+669.798+770.094+679.281C768.196+683.355+766.172+687.374+764.125+691.375C762.242+695.056+760.345+698.733+758.219+702.281C754.648+708.238+750.617+713.885+747+719.812C745.694+721.953+744.37+724.165+743.188+726.375C741.992+728.609+740.96+730.913+739.844+733.188C737.52+737.927+739.449+743.676+744.188+746C748.927+748.324+754.676+746.364+757+741.625C758.017+739.549+758.944+737.414+760.031+735.375C761.043+733.479+762.195+731.617+763.312+729.781C766.95+723.807+771.003+718.099+774.594+712.094C776.936+708.177+779.02+704.126+781.094+700.062C783.243+695.851+785.351+691.6+787.344+687.312C791.905+677.499+795.721+667.393+799.719+657.344C802.602+650.096+805.891+642.995+808.188+635.531C810.009+629.613+811.56+623.623+813.094+617.625C815.453+608.401+817.617+599.116+819.781+589.844C821.021+584.532+822.17+579.181+823.562+573.906C829.21+552.511+838.251+531.992+841.719+510.031C842.822+503.047+843.2+495.966+843.438+488.906C843.733+480.124+843.717+471.346+843.5+462.562C843.315+455.085+842.998+447.586+842.469+440.125C842.099+434.913+841.694+429.672+840.719+424.531C839.504+418.128+837.753+411.817+835.938+405.562C833.572+397.416+830.959+389.34+828.219+381.312C823.9+368.663+819.278+356.101+813.938+343.844C812.091+339.605+810.169+335.383+808.031+331.281C806.194+327.755+804.21+324.282+801.781+321.125C800.256+319.146+798.078+317.985+795.781+317.688Z" opacity="1"/>
<path fill="#ffffff" d="M740.219+344.25C735.262+344.392+730.318+344.743+725.438+345.25C704.143+347.464+683.178+352.594+662.812+359.094C656.077+361.243+649.4+363.576+642.781+366.062C636.163+368.549+629.595+371.189+623.219+374.25C612.82+379.242+602.878+385.124+593+391.062C589.893+392.93+586.994+395.072+583.906+396.969C582.367+397.914+580.715+398.877+578.969+399.438C578.638+399.196+578.4+398.997+578.031+398.719C577.207+398.096+576.373+397.492+575.5+396.938C573.49+395.662+571.354+394.574+569.281+393.406C565.803+391.447+562.317+389.478+558.781+387.625C554.617+385.443+550.366+383.405+546+381.656C541.385+379.807+536.666+378.269+532.031+376.469C522.427+372.739+513.027+368.451+503.5+364.531C493.227+360.304+482.813+356.374+471.969+353.875C459.804+351.072+447.328+349.725+434.906+348.688C428.222+348.129+421.565+347.612+414.875+347.125C391.12+345.396+367.008+344.794+344.188+352.688C339.465+354.321+336.96+359.465+338.594+364.188C340.228+368.91+345.371+371.415+350.094+369.781C370.434+362.744+392.376+363.641+413.531+365.219C421.624+365.822+429.701+366.437+437.781+367.188C448.553+368.188+459.362+369.5+469.875+372.125C484.368+375.744+498.193+382.183+511.875+388.062C516.326+389.975+520.772+391.884+525.281+393.656C530.679+395.777+536.249+397.542+541.562+399.875C546.192+401.907+550.651+404.287+555.062+406.75C557.61+408.172+560.149+409.625+562.688+411.062C563.618+411.589+564.6+412.077+565.5+412.656C567.12+413.698+568.516+415.023+570.188+416C572.929+417.601+576.003+418.498+579.188+418.375C587.388+418.058+594.388+412.363+601+408.156C603.869+406.331+606.848+404.657+609.781+402.938C616.242+399.15+622.78+395.468+629.5+392.156C641.095+386.442+653.412+382.114+665.688+378.125C684.766+371.926+704.365+366.937+724.312+364.562C732.245+363.618+740.23+363.117+748.219+363.344C757.914+363.619+767.64+364.988+776.656+368.688C781.542+370.686+787.126+368.354+789.125+363.469C791.124+358.583+788.792+352.999+783.906+351C770.094+345.363+755.09+343.823+740.219+344.25Z" opacity="1"/>
<path opacity="1" fill="#ffffff" d="M546.844+465.656C541.876+465.113+537.419+468.688+536.875+473.656C536.331+478.624+539.907+483.113+544.875+483.656C549.095+484.123+553.317+484.578+557.531+485.094C555.579+488.543+553.552+491.761+554.281+496C554.464+497.061+554.83+498.119+555.281+499.094C556.675+502.106+558.796+504.727+560.844+507.312C561.423+508.043+562.015+508.769+562.594+509.5C562.702+509.636+562.797+509.771+562.906+509.906C562.906+509.935+562.908+509.971+562.906+510C562.904+510.031+562.9+510.124+562.906+510.094C562.964+509.795+562.725+510.753+562.688+510.844C562.354+511.656+561.852+512.413+561.344+513.125C559.636+515.521+557.586+517.631+555.656+519.844C552.197+523.831+552.606+529.885+556.594+533.344C560.581+536.803+566.635+536.362+570.094+532.375C572.724+529.325+575.49+526.391+577.688+523C580.996+517.897+582.793+511.822+581.469+505.781C581.108+504.137+580.543+502.471+579.719+501C578.593+498.992+576.985+497.241+575.531+495.469C575.012+494.836+574.509+494.203+574+493.562C574.174+493.228+574.359+492.898+574.531+492.562C576.693+488.352+579.621+483.075+579.375+478.156C579.333+477.317+579.221+476.361+578.969+475.562C578.774+474.948+578.618+474.311+578.25+473.781C577.424+472.592+576.489+471.464+575.438+470.469C574.967+470.023+574.326+469.796+573.75+469.5C573.348+469.294+572.591+469.042+572.125+468.906C569.508+468.143+566.689+467.901+564+467.562C558.285+466.843+552.57+466.275+546.844+465.656Z"/>
<path opacity="1" fill="#ffffff" d="M327.75+434.5C326.586+434.666+325.445+435.074+324.375+435.719C316.075+440.707+307.463+445.455+300.875+452.719C297.817+456.09+295.37+460.346+295.062+464.969C294.673+470.832+297.916+477.013+303.312+479.562C304.594+480.168+305.958+480.452+307.344+480.656C306.875+481.38+306.32+482.043+305.75+482.688C304.098+484.555+302.353+486.329+300.875+488.344C300.35+489.059+299.795+489.736+299.344+490.5C298.894+491.26+298.559+492.106+298.188+492.906C297.898+493.531+297.58+494.134+297.344+494.781C295.971+498.54+296.157+502.609+296.938+506.469C297.215+507.838+297.569+509.168+297.875+510.531C298.085+511.465+298.295+512.412+298.25+513.375C297.982+519.127+296.604+524.814+295.469+530.438C294.89+533.304+294.323+536.198+293.906+539.094C293.637+540.966+293.463+542.87+293.25+544.75C292.666+549.996+296.441+554.728+301.688+555.312C306.934+555.897+311.666+552.09+312.25+546.844C312.435+545.158+312.577+543.46+312.812+541.781C313.299+538.323+314.039+534.893+314.719+531.469C315.868+525.679+317.157+519.769+317.25+513.844C317.305+510.324+316.494+507.013+315.656+503.625C315.508+503.025+315.384+502.422+315.281+501.812C315.238+501.555+315.205+501.292+315.188+501.031C315.185+500.992+315.179+500.96+315.188+500.906C315.283+500.591+315.372+500.283+315.531+500C315.638+499.811+315.838+499.673+315.969+499.5C316.217+499.172+316.431+498.821+316.688+498.5C318.113+496.713+319.745+495.115+321.156+493.312C324.029+489.644+326.057+485.406+326.25+480.688C326.412+476.728+325.381+472.636+323.25+469.281C322.953+468.814+322.669+468.361+322.312+467.938C321.707+467.219+321.113+466.456+320.375+465.875C319.326+465.05+318.225+464.281+317+463.75C316.616+463.583+316.185+463.551+315.781+463.438C316.774+462.473+317.819+461.572+318.906+460.719C323.531+457.088+328.699+454.245+333.719+451.219C338+448.641+339.39+443.094+336.812+438.812C334.879+435.601+331.241+434.002+327.75+434.5Z"/>
<path d="M764.062+455.219C761.76+454.976+759.349+455.616+757.406+457.188C752.862+460.86+747.833+465.331+749+471.875C749.586+475.158+751.734+477.724+754.5+479.438C754.584+479.489+754.665+479.543+754.75+479.594C754.592+479.771+754.431+479.94+754.281+480.125C752.965+481.752+751.896+483.564+750.656+485.25C746.126+491.409+741.209+497.452+738.688+504.781C736.786+510.309+736.586+515.583+738.625+521.094C739.487+523.424+740.694+525.571+741.75+527.812C742.136+528.632+742.619+529.599+742.719+530.531C742.792+531.221+742.111+532.684+741.75+533.5C741.58+533.885+741.39+534.271+741.219+534.656C740.29+536.748+739.453+538.835+738.906+541.062C738.33+543.41+738.121+545.711+738.156+548.125C738.18+549.754+738.302+551.404+738.375+553.031C738.405+553.712+738.477+554.414+738.406+555.094C738.351+555.629+738.185+556.157+738.094+556.688C737.21+561.891+740.734+566.835+745.938+567.719C751.141+568.603+756.053+565.11+756.938+559.906C757.1+558.937+757.311+557.946+757.406+556.969C757.601+554.967+757.515+552.94+757.406+550.938C757.335+549.636+757.201+548.336+757.219+547.031C757.223+546.761+757.195+546.484+757.25+546.219C757.726+543.936+758.914+541.871+759.781+539.719C761.104+536.437+761.951+532.968+761.688+529.406C761.433+525.959+760.31+522.747+758.812+519.656C758.113+518.213+757.31+516.795+756.625+515.344C756.284+514.621+755.887+513.846+755.844+513.031C755.816+512.507+755.989+511.935+756.125+511.438C757.47+506.51+761.087+502.009+764.031+497.938C765.001+496.597+765.974+495.273+766.906+493.906C767.413+493.164+767.866+492.292+768.438+491.594C769.373+490.449+770.442+489.446+771.281+488.219C773.498+484.98+774.153+481.09+773.719+477.219C773.496+475.232+772.954+473.276+772.031+471.5C771.615+470.698+770.958+470.061+770.406+469.344C772.657+466.122+772.721+461.739+770.125+458.531C768.553+456.589+766.365+455.462+764.062+455.219Z" opacity="1" fill="#ffffff"/>
<path fill="#ffffff" d="M479.094+131.969C449.387+131.704+419.724+140.64+393.375+154.188C388.929+156.469+387.187+161.929+389.469+166.375C391.751+170.821+397.21+172.594+401.656+170.312C410.141+165.966+418.84+162.121+427.875+159.062C454.023+150.212+482.841+147.631+509.594+155.406C516.758+157.488+523.599+160.359+530.219+163.781C534.911+166.198+540.677+164.349+543.094+159.656C545.511+154.964+543.661+149.198+538.969+146.781C529.329+141.835+519.278+137.953+508.719+135.469C498.926+133.165+488.996+132.057+479.094+131.969Z" opacity="1"/>
<path fill="#ffffff" opacity="1" d="M675.812+130.531C663.553+130.5+651.294+131.511+639.25+133.5C622.804+136.216+606.5+140.868+592+149.25C587.671+151.747+586.159+157.265+588.656+161.594C591.154+165.923+596.702+167.404+601.031+164.906C614.33+157.25+629.418+153.422+644.531+151.375C655.126+149.94+665.843+149.394+676.531+149.562C687.395+149.734+698.218+150.653+708.906+152.625C714.099+153.573+719.083+150.13+720.031+144.938C720.98+139.745+717.537+134.761+712.344+133.812C700.324+131.64+688.072+130.562+675.812+130.531Z"/>
<path opacity="1" d="M510.938+192.781C503.642+192.449+496.274+193.323+489.219+195.219C482.983+196.894+477.031+199.332+471.312+202.312C466.639+204.766+464.828+210.545+467.281+215.219C469.734+219.893+475.514+221.703+480.188+219.25C496.151+210.806+516.436+207.525+532.25+218.156C535.912+220.618+539.006+223.712+541.781+227.125C544.932+231.004+550.621+231.588+554.5+228.438C558.379+225.287+558.963+219.598+555.812+215.719C551.935+210.939+547.583+206.651+542.5+203.156C539.275+200.939+535.819+199.065+532.219+197.531C525.451+194.648+518.233+193.114+510.938+192.781Z" fill="#ffffff"/>
<path fill="#ffffff" d="M680.406+191.812C677.418+191.589+674.396+191.676+671.438+191.969C662.174+192.887+652.906+195.862+644.969+200.75C639.512+204.11+634.747+208.443+631.438+213.969C628.748+218.511+630.239+224.373+634.781+227.062C639.323+229.752+645.186+228.23+647.875+223.688C649.857+220.274+653.21+217.901+656.594+216C662.029+212.947+668.197+210.907+674.406+210.281C677.505+209.969+680.74+209.982+683.75+210.875C686.148+211.587+688.195+213.164+690.156+214.656C692.132+216.159+694.072+217.666+696.125+219.062C700.255+221.876+705.905+220.786+708.719+216.656C711.533+212.526+710.442+206.908+706.312+204.094C703.204+201.972+700.362+199.479+697.219+197.406C694.71+195.752+692.054+194.386+689.188+193.469C686.34+192.558+683.395+192.036+680.406+191.812Z" opacity="1"/>
<path fill="#ffffff" d="M383.594+38.6875C373.481+38.5141+363.417+39.3437+353.469+41.1562C348.551+42.0465+345.297+46.77+346.188+51.6875C347.078+56.605+351.77+59.859+356.688+58.9688C372.558+56.1141+389.183+55.959+404.906+59.8438C413.897+62.0652+422.483+65.6872+431+69.25C434.476+70.7041+437.963+72.0879+441.469+73.4688C446.384+75.3919+451.921+72.9781+453.844+68.0625C455.767+63.1469+453.353+57.6107+448.438+55.6875C436.322+50.9798+424.455+45.4327+411.812+42.2188C402.599+39.8765+393.086+38.8503+383.594+38.6875Z" opacity="1"/>
<path opacity="1" fill="#ffffff" d="M729.531+90.5625C726.571+90.6324+723.637+90.7862+720.719+91.0625C715.743+91.5286+712.065+95.9618+712.531+100.938C712.997+105.913+717.431+109.56+722.406+109.094C747.147+106.803+774.439+113.747+791.5+132.719C795.043+136.632+801.087+136.918+805+133.375C808.913+129.832+809.23+123.788+805.688+119.875C800.795+114.502+795.286+109.789+789.156+105.875C771.682+94.7174+750.255+90.0732+729.531+90.5625Z"/>
<path d="M172.375+626.969C167.78+627.067+163.185+627.446+158.688+628.312C154.827+629.057+151.081+630.215+147.5+631.844C143.222+633.79+139.317+636.453+134.938+638.188C128.39+640.781+121.224+641.652+114.25+642.156C104.767+642.842+95.1736+642.938+85.7188+641.844C76.5949+640.788+67.6358+638.655+58.5312+637.469C50.4723+636.419+42.3875+636.221+34.2812+636.781C29.2957+637.126+25.5301+641.452+25.875+646.438C26.2199+651.423+30.5457+655.189+35.5312+654.844C41.6478+654.42+47.7469+654.487+53.8438+655.156C62.889+656.149+71.77+658.231+80.7812+659.469C92.2857+661.049+103.963+661.053+115.531+660.219C124.363+659.582+133.315+658.306+141.594+655.031C148.363+652.354+154.29+647.733+161.5+646.219C165.564+645.365+169.733+645.136+173.875+645.094C178.152+645.05+182.421+645.246+186.688+645.531C197.61+646.262+208.506+647.607+219.312+649.344C256.839+655.376+293.322+666.479+329.312+678.469C378.846+694.971+427.989+713.377+479.25+723.938C483.07+724.725+486.914+725.449+490.75+726.156C494.038+726.763+497.365+727.427+500.688+727.812C503.311+728.117+505.955+728.195+508.594+728.188C517.648+728.162+526.686+727.277+535.688+726.375C546.423+725.299+557.146+724.084+567.875+722.938C572.86+722.405+577.846+722.016+582.844+721.625C584.715+721.478+586.597+721.334+588.469+721.188C589.031+721.143+589.592+721.039+590.156+721.031C592.616+720.998+595.103+721.158+597.562+721.219C598.93+721.252+600.325+721.202+601.688+721.312C603.355+721.448+605.064+721.839+606.719+722.094C610.167+722.625+613.59+723.175+617.031+723.75C626.694+725.364+636.349+727.118+645.969+728.969C674.27+734.414+702.422+740.585+730.438+747.344C736.927+748.909+743.408+750.502+749.875+752.156C754.354+753.302+758.824+754.519+763.344+755.5C770.044+756.955+776.82+758.07+783.625+758.906C808.178+761.924+833.089+761.307+857.688+759.188C890.856+756.33+923.685+750.615+956.531+745.344C961.743+744.506+965.275+739.587+964.438+734.375C963.6+729.163+958.712+725.631+953.5+726.469C921.118+731.68+888.733+737.355+856.031+740.188C832.754+742.203+809.207+742.846+785.969+740C779.74+739.237+773.509+738.235+767.375+736.906C762.597+735.871+757.894+734.579+753.156+733.375C746.556+731.698+739.935+730.055+733.312+728.469C704.966+721.679+676.451+715.526+647.812+710.094C637.581+708.153+627.343+706.322+617.062+704.656C614.083+704.173+611.11+703.699+608.125+703.25C606.512+703.007+604.843+702.696+603.219+702.562C600.975+702.378+598.688+702.426+596.438+702.375C594.229+702.325+591.99+702.17+589.781+702.219C588.102+702.256+586.425+702.491+584.75+702.625C582.13+702.835+579.495+703.04+576.875+703.25C562.075+704.437+547.335+706.422+532.562+707.906C523.856+708.781+515.045+709.744+506.281+709.531C503.201+709.456+500.258+708.913+497.219+708.406C492.465+707.613+487.722+706.682+483+705.719C452.567+699.51+422.815+690.397+393.344+680.688C336.983+662.119+281.037+640.783+222.188+631.375C210.243+629.465+198.203+628.022+186.125+627.312C181.575+627.045+176.97+626.871+172.375+626.969Z" opacity="1" fill="#ffffff"/>
</g>
</svg>
